<?xml version="1.0" standalone="no"?><!DOCTYPE svg PUBLIC "-//W3C//DTD SVG 1.1//EN" "http://www.w3.org/Graphics/SVG/1.1/DTD/svg11.dtd"><svg xmlns:xlink="http://www.w3.org/1999/xlink" version="1.1" class="highcharts-root" style="font-family:&quot;Lucida Grande&quot;, &quot;Lucida Sans Unicode&quot;, Arial, Helvetica, sans-serif;font-size:12px;" xmlns="http://www.w3.org/2000/svg" width="600" height="400" viewBox="0 0 600 400"><desc>Created with Highcharts 6.1.4</desc><defs><clipPath id="highcharts-b0iwfow-7"><rect x="0" y="0" width="600" height="400" fill="none"></rect></clipPath></defs><rect fill="#ffffff" class="highcharts-background" x="0" y="0" width="600" height="400" rx="0" ry="0"></rect><g stroke-linejoin="round" class="highcharts-3d-frame highcharts-3d-frame-bottom" data-z-index="-1000"><path fill="none" d="M 32.616797952334935 365.7688292313642 L 566.4643594289446 365.7688292313642 L 559.3964220428481 298.4323669644191 L 39.70910753631455 298.4323669644191 Z" visibility="hidden"></path><path fill="none" d="M 40.46725960140628 298.46543926634297 L 559.5327403985937 298.46543926634297 L 566.5362651832095 365.15408727022435 L 33.46373481679058 365.15408727022435 Z" visibility="visible"></path><path fill="none" d="M 32.616797952334935 365.7688292313642 L 39.70910753631455 298.4323669644191 L 40.46725960140628 298.46543926634297 L 33.46373481679058 365.15408727022435 Z" visibility="hidden"></path><path fill="none" d="M 559.3964220428481 298.4323669644191 L 566.4643594289446 365.7688292313642 L 566.5362651832095 365.15408727022435 L 559.5327403985937 298.46543926634297 Z" visibility="hidden"></path><path fill="none" d="M 566.4643594289446 365.7688292313642 L 32.616797952334935 365.7688292313642 L 33.46373481679058 365.15408727022435 L 566.5362651832095 365.15408727022435 Z" visibility="visible"></path><path fill="none" d="M 39.70910753631455 298.4323669644191 L 559.3964220428481 298.4323669644191 L 559.5327403985937 298.46543926634297 L 40.46725960140628 298.46543926634297 Z" visibility="hidden"></path></g><g stroke-linejoin="round" class="highcharts-3d-frame highcharts-3d-frame-left" data-z-index="-1000"><path fill="none" d="M 32.616797952334935 365.7688292313642 L 33.46373481679058 365.15408727022435 L 40.46725960140628 298.46543926634297 L 39.70910753631455 298.4323669644191 Z" visibility="hidden"></path><path fill="none" d="M 17.44771823957268 97.84081026892679 L 18.338391211018177 98.4883300064379 L 10.070627020313225 165.1600101480673 L 9.070870561762604 165.1600101480673 Z" visibility="visible"></path><path fill="none" d="M 39.70910753631455 298.4323669644191 L 17.44771823957268 97.84081026892679 L 9.070870561762604 165.1600101480673 L 32.616797952334935 365.7688292313642 Z" visibility="hidden"></path><path fill="none" d="M 18.338391211018177 98.4883300064379 L 40.46725960140628 298.46543926634297 L 33.46373481679058 365.15408727022435 L 10.070627020313225 165.1600101480673 Z" visibility="visible"></path><path fill="none" d="M 32.616797952334935 365.7688292313642 L 9.070870561762604 165.1600101480673 L 10.070627020313225 165.1600101480673 L 33.46373481679058 365.15408727022435 Z" visibility="visible"></path><path fill="none" d="M 17.44771823957268 97.84081026892679 L 39.70910753631455 298.4323669644191 L 40.46725960140628 298.46543926634297 L 18.338391211018177 98.4883300064379 Z" visibility="hidden"></path></g><g stroke-linejoin="round" class="highcharts-3d-frame highcharts-3d-frame-right" data-z-index="-1000"><path fill="none" d="M 559.3964220428481 298.4323669644191 L 559.5327403985937 298.46543926634297 L 566.5362651832095 365.15408727022435 L 566.4643594289446 365.7688292313642 Z" visibility="hidden"></path><path fill="none" d="M 589.9293729796868 165.1600101480673 L 589.9293729796868 165.1600101480673 L 581.6616087889818 98.4883300064379 L 581.5813117200134 97.84081026892679 Z" visibility="hidden"></path><path fill="none" d="M 589.9293729796868 165.1600101480673 L 566.5362651832095 365.15408727022435 L 559.5327403985937 298.46543926634297 L 581.6616087889818 98.4883300064379 Z" visibility="hidden"></path><path fill="none" d="M 566.4643594289446 365.7688292313642 L 589.9293729796868 165.1600101480673 L 581.5813117200134 97.84081026892679 L 559.3964220428481 298.4323669644191 Z" visibility="hidden"></path><path fill="none" d="M 589.9293729796868 165.1600101480673 L 566.4643594289446 365.7688292313642 L 566.5362651832095 365.15408727022435 L 589.9293729796868 165.1600101480673 Z" visibility="hidden"></path><path fill="none" d="M 559.3964220428481 298.4323669644191 L 581.5813117200134 97.84081026892679 L 581.6616087889818 98.4883300064379 L 559.5327403985937 298.46543926634297 Z" visibility="hidden"></path></g><g stroke-linejoin="round" class="highcharts-3d-frame highcharts-3d-frame-back" data-z-index="-1000"><path fill="none" d="M 559.3964220428481 298.4323669644191 L 39.70910753631455 298.4323669644191 L 40.46725960140628 298.46543926634297 L 559.5327403985937 298.46543926634297 Z" visibility="hidden"></path><path fill="none" d="M 17.44771823957268 97.84081026892679 L 581.5813117200134 97.84081026892679 L 581.6616087889818 98.4883300064379 L 18.338391211018177 98.4883300064379 Z" visibility="visible"></path><path fill="none" d="M 39.70910753631455 298.4323669644191 L 17.44771823957268 97.84081026892679 L 18.338391211018177 98.4883300064379 L 40.46725960140628 298.46543926634297 Z" visibility="hidden"></path><path fill="none" d="M 581.5813117200134 97.84081026892679 L 559.3964220428481 298.4323669644191 L 559.5327403985937 298.46543926634297 L 581.6616087889818 98.4883300064379 Z" visibility="hidden"></path><path fill="none" d="M 18.338391211018177 98.4883300064379 L 581.6616087889818 98.4883300064379 L 559.5327403985937 298.46543926634297 L 40.46725960140628 298.46543926634297 Z" visibility="visible"></path><path fill="none" d="M 39.70910753631455 298.4323669644191 L 559.3964220428481 298.4323669644191 L 581.5813117200134 97.84081026892679 L 17.44771823957268 97.84081026892679 Z" visibility="hidden"></path></g><rect fill="none" class="highcharts-plot-background" x="10" y="86" width="580" height="299"></rect><rect fill="none" class="highcharts-plot-border" data-z-index="1" x="10" y="86" width="580" height="299"></rect><g class="highcharts-series-group" data-z-index="3"><g data-z-index="0.1" class="highcharts-series highcharts-series-0 highcharts-pie-series " transform="translate(10,86) scale(1 1)"><path fill="rgb(99,156,211)" d="M 416.4303766049515 145.33191364331108 L 416.4303766049515 169.19676750835706 L 416.4303766049515 169.19676750835706 L 416.4303766049515 145.33191364331108 Z" data-z-index="20.163647305236008" transform="translate(0,0)" class="0 highcharts-3d-side highcharts-point highcharts-color-0" visibility="visible"></path><path fill="rgb(103,108,208)" d="M 375.5245374958092 118.7241403941196 L 375.5245374958092 142.5889942591656 L 375.5245374958092 142.5889942591656 L 375.5245374958092 118.7241403941196 Z" data-z-index="39.49905808426557" transform="translate(0,0)" class="0 highcharts-3d-side highcharts-point highcharts-color-4" visibility="visible"></path><path fill="rgb(103,108,208)" d="M 376.4840407850358 118.71573100375883 L 376.4840407850358 142.5805848688048 L 376.4840407850358 142.5805848688048 L 376.4840407850358 118.71573100375883 Z" data-z-index="2414.5090580843053" transform="translate(0,0)" class="0 highcharts-3d-side highcharts-point highcharts-color-4" visibility="visible"></path><path fill="rgb(222,138,67)" d="M 374.3654551670605 118.75602968458426 L 374.3654551670605 142.62088354963024 L 374.3654551670605 142.62088354963024 L 374.3654551670605 118.75602968458426 Z" data-z-index="2415.4990580842677" transform="translate(0,0)" class="0 highcharts-3d-side highcharts-point highcharts-color-3" visibility="visible"></path><path fill="rgb(103,108,208)" d="M 375.5245374958092 118.7241403941196 C 375.86182809483927 118.71832245724772 376.1466498739957 118.71582618907327 376.4840407850358 118.71573100375883 L 376.4840407850358 142.5805848688048 C 376.1466498739957 142.58068005411926 375.86182809483927 142.5831763222937 375.5245374958092 142.5889942591656 Z" data-z-index="2438.8980384689953" transform="translate(0,0)" class="0 highcharts-3d-side highcharts-point highcharts-color-4" visibility="visible"></path><path fill="rgb(103,108,208)" d="M 375.5245374958092 118.7241403941196 C 375.86182809483927 118.71832245724772 376.1466498739957 118.71582618907327 376.4840407850358 118.71573100375883 L 376.4840407850358 142.5805848688048 C 376.1466498739957 142.58068005411926 375.86182809483927 142.5831763222937 375.5245374958092 142.5889942591656 Z" data-z-index="2438.8980384689953" transform="translate(0,0)" class="0 highcharts-3d-side highcharts-point highcharts-color-4" visibility="visible"></path><path fill="rgb(222,138,67)" d="M 375.5241376148166 118.7241472930949 L 375.5241376148166 142.5890011581409 L 375.5241376148166 142.5890011581409 L 375.5241376148166 118.7241472930949 Z" data-z-index="5285.509058084297" transform="translate(0,0)" class="0 highcharts-3d-side highcharts-point highcharts-color-3" visibility="visible"></path><path fill="rgb(119,212,100)" d="M 373.12844586573505 118.81638221661632 L 373.12844586573505 142.6812360816623 L 373.12844586573505 142.6812360816623 L 373.12844586573505 118.81638221661632 Z" data-z-index="5286.499058084259" transform="translate(0,0)" class="0 highcharts-3d-side highcharts-point highcharts-color-2" visibility="visible"></path><path fill="rgb(222,138,67)" d="M 374.3654551670605 118.75602968458426 C 374.7725842564108 118.7406452452808 375.1165489495331 118.73118068747561 375.5241376148166 118.7241472930949 L 375.5241376148166 142.5890011581409 C 375.1165489495331 142.5960345525216 374.7725842564108 142.60549911032678 374.3654551670605 142.62088354963024 Z" data-z-index="5338.898038468987" transform="translate(0,0)" class="0 highcharts-3d-side highcharts-point highcharts-color-3" visibility="visible"></path><path fill="rgb(222,138,67)" d="M 374.3654551670605 118.75602968458426 C 374.7725842564108 118.7406452452808 375.1165489495331 118.73118068747561 375.5241376148166 118.7241472930949 L 375.5241376148166 142.5890011581409 C 375.1165489495331 142.5960345525216 374.7725842564108 142.60549911032678 374.3654551670605 142.62088354963024 Z" data-z-index="5338.898038468987" transform="translate(0,0)" class="0 highcharts-3d-side highcharts-point highcharts-color-3" visibility="visible"></path><path fill="rgb(119,212,100)" d="M 374.36505573710843 118.75604477950772 L 374.36505573710843 142.6208986445537 L 374.36505573710843 142.6208986445537 L 374.36505573710843 118.75604477950772 Z" data-z-index="8354.509058084266" transform="translate(0,0)" class="0 highcharts-3d-side highcharts-point highcharts-color-2" visibility="visible"></path><path fill="rgb(42,42,47)" d="M 371.65635667647575 118.9238613823546 L 371.65635667647575 142.78871524740057 L 371.65635667647575 142.78871524740057 L 371.65635667647575 118.9238613823546 Z" data-z-index="8355.49905808423" transform="translate(0,0)" class="0 highcharts-3d-side highcharts-point highcharts-color-1" visibility="visible"></path><path fill="rgb(119,212,100)" d="M 373.12844586573505 118.81638221661632 C 373.5627325251792 118.79040576119178 373.92983932676424 118.7724936580576 374.36505573710843 118.75604477950772 L 374.36505573710843 142.6208986445537 C 373.92983932676424 142.63734752310359 373.5627325251792 142.65525962623775 373.12844586573505 142.6812360816623 Z" data-z-index="8438.898038468957" transform="translate(0,0)" class="0 highcharts-3d-side highcharts-point highcharts-color-2" visibility="visible"></path><path fill="rgb(119,212,100)" d="M 373.12844586573505 118.81638221661632 C 373.5627325251792 118.79040576119178 373.92983932676424 118.7724936580576 374.36505573710843 118.75604477950772 L 374.36505573710843 142.6208986445537 C 373.92983932676424 142.63734752310359 373.5627325251792 142.65525962623775 373.12844586573505 142.6812360816623 Z" data-z-index="8438.898038468957" transform="translate(0,0)" class="0 highcharts-3d-side highcharts-point highcharts-color-2" visibility="visible"></path><path fill="rgb(42,42,47)" d="M 373.12804728935856 118.81640605851342 L 373.12804728935856 142.6812599235594 L 373.12804728935856 142.6812599235594 L 373.12804728935856 118.81640605851342 Z" data-z-index="12017.509058084259" transform="translate(0,0)" class="0 highcharts-3d-side highcharts-point highcharts-color-1" visibility="visible"></path><path fill="rgb(99,156,211)" d="M 370.03295134585255 119.08784062720255 L 370.03295134585255 142.95269449224853 L 370.03295134585255 142.95269449224853 L 370.03295134585255 119.08784062720255 Z" data-z-index="12018.499058084222" transform="translate(0,0)" class="0 highcharts-3d-side highcharts-point highcharts-color-0" visibility="visible"></path><path fill="rgb(42,42,47)" d="M 371.65635667647575 118.9238613823546 C 372.1727491233443 118.8793178491135 372.60967846253396 118.84741550277295 373.12804728935856 118.81640605851342 L 373.12804728935856 142.6812599235594 C 372.60967846253396 142.71226936781892 372.1727491233443 142.74417171415948 371.65635667647575 142.78871524740057 Z" data-z-index="12138.898038468948" transform="translate(0,0)" class="0 highcharts-3d-side highcharts-point highcharts-color-1" visibility="visible"></path><path fill="rgb(42,42,47)" d="M 371.65635667647575 118.9238613823546 C 372.1727491233443 118.8793178491135 372.60967846253396 118.84741550277295 373.12804728935856 118.81640605851342 L 373.12804728935856 142.6812599235594 C 372.60967846253396 142.71226936781892 372.1727491233443 142.74417171415948 371.65635667647575 142.78871524740057 Z" data-z-index="12138.898038468948" transform="translate(0,0)" class="0 highcharts-3d-side highcharts-point highcharts-color-1" visibility="visible"></path><path fill="rgb(99,156,211)" d="M 371.65595962015783 118.9238956334888 L 371.65595962015783 142.78874949853477 L 371.65595962015783 142.78874949853477 L 371.65595962015783 118.9238956334888 Z" data-z-index="16076.509058084295" transform="translate(0,0)" class="0 highcharts-3d-side highcharts-point highcharts-color-0" visibility="visible"></path><path fill="rgb(120,207,200)" d="M 368.1072734368742 119.34532461918417 L 368.1072734368742 143.21017848423014 L 368.1072734368742 143.21017848423014 L 368.1072734368742 119.34532461918417 Z" data-z-index="16077.499058084259" transform="translate(0,0)" class="0 highcharts-3d-side highcharts-point highcharts-color-9" visibility="visible"></path><path fill="rgb(99,156,211)" d="M 370.03295134585255 119.08784062720255 C 370.6018429528653 119.02193655915197 371.0837265686624 118.97326003198117 371.65595962015783 118.9238956334888 L 371.65595962015783 142.78874949853477 C 371.0837265686624 142.83811389702714 370.6018429528653 142.88679042419795 370.03295134585255 142.95269449224853 Z" data-z-index="16238.898038468986" transform="translate(0,0)" class="0 highcharts-3d-side highcharts-point highcharts-color-0" visibility="visible"></path><path fill="rgb(99,156,211)" d="M 370.03295134585255 119.08784062720255 C 370.6018429528653 119.02193655915197 371.0837265686624 118.97326003198117 371.65595962015783 118.9238956334888 L 371.65595962015783 142.78874949853477 C 371.0837265686624 142.83811389702714 370.6018429528653 142.88679042419795 370.03295134585255 142.95269449224853 Z" data-z-index="16238.898038468986" transform="translate(0,0)" class="0 highcharts-3d-side highcharts-point highcharts-color-0" visibility="visible"></path><path fill="rgb(120,207,200)" d="M 370.0325566086325 119.08788635753773 L 370.0325566086325 142.9527402225837 L 370.0325566086325 142.9527402225837 L 370.0325566086325 119.08788635753773 Z" data-z-index="20927.509058084244" transform="translate(0,0)" class="0 highcharts-3d-side highcharts-point highcharts-color-9" visibility="visible"></path><path fill="rgb(219,66,66)" d="M 365.70015602516355 119.76616653756591 L 365.70015602516355 143.63102040261188 L 365.70015602516355 143.63102040261188 L 365.70015602516355 119.76616653756591 Z" data-z-index="20928.499058084206" transform="translate(0,0)" class="0 highcharts-3d-side highcharts-point highcharts-color-8" visibility="visible"></path><path fill="rgb(120,207,200)" d="M 368.1072734368742 119.34532461918417 C 368.78092322337824 119.24310395704329 369.35263579462196 119.16665770089698 370.0325566086325 119.08788635753773 L 370.0325566086325 142.9527402225837 C 369.35263579462196 143.03151156594296 368.78092322337824 143.10795782208928 368.1072734368742 143.21017848423014 Z" data-z-index="21138.898038468935" transform="translate(0,0)" class="0 highcharts-3d-side highcharts-point highcharts-color-9" visibility="visible"></path><path fill="rgb(120,207,200)" d="M 368.1072734368742 119.34532461918417 C 368.78092322337824 119.24310395704329 369.35263579462196 119.16665770089698 370.0325566086325 119.08788635753773 L 370.0325566086325 142.9527402225837 C 369.35263579462196 143.03151156594296 368.78092322337824 143.10795782208928 368.1072734368742 143.21017848423014 Z" data-z-index="21138.898038468935" transform="translate(0,0)" class="0 highcharts-3d-side highcharts-point highcharts-color-9" visibility="visible"></path><path fill="rgb(219,66,66)" d="M 368.106882341124 119.34538396610554 L 368.106882341124 143.21023783115152 L 368.106882341124 143.21023783115152 L 368.106882341124 119.34538396610554 Z" data-z-index="27065.50905808427" transform="translate(0,0)" class="0 highcharts-3d-side highcharts-point highcharts-color-8" visibility="visible"></path><path fill="rgb(18,119,118)" d="M 363.10815048939725 120.34799851150603 L 363.10815048939725 144.212852376552 L 363.10815048939725 144.212852376552 L 363.10815048939725 120.34799851150603 Z" data-z-index="27066.499058084235" transform="translate(0,0)" class="0 highcharts-3d-side highcharts-point highcharts-color-7" visibility="visible"></path><path fill="rgb(219,66,66)" d="M 365.70015602516355 119.76616653756591 C 366.5395939491553 119.59972286341007 367.2544744895337 119.47473595896956 368.106882341124 119.34538396610554 L 368.106882341124 143.21023783115152 C 367.2544744895337 143.33958982401555 366.5395939491553 143.46457672845605 365.70015602516355 143.63102040261188 Z" data-z-index="27338.89803846896" transform="translate(0,0)" class="0 highcharts-3d-side highcharts-point highcharts-color-8" visibility="visible"></path><path fill="rgb(219,66,66)" d="M 365.70015602516355 119.76616653756591 C 366.5395939491553 119.59972286341007 367.2544744895337 119.47473595896956 368.106882341124 119.34538396610554 L 368.106882341124 143.21023783115152 C 367.2544744895337 143.33958982401555 366.5395939491553 143.46457672845605 365.70015602516355 143.63102040261188 Z" data-z-index="27338.89803846896" transform="translate(0,0)" class="0 highcharts-3d-side highcharts-point highcharts-color-8" visibility="visible"></path><path fill="rgb(18,119,118)" d="M 365.6997708811372 119.7662429053567 L 365.6997708811372 143.63109677040268 L 365.6997708811372 143.63109677040268 L 365.6997708811372 119.7662429053567 Z" data-z-index="33797.50905808423" transform="translate(0,0)" class="0 highcharts-3d-side highcharts-point highcharts-color-7" visibility="visible"></path><path fill="rgb(203,186,59)" d="M 360.43139450142155 121.09826340444472 L 360.43139450142155 144.9631172694907 L 360.43139450142155 144.9631172694907 L 360.43139450142155 121.09826340444472 Z" data-z-index="33798.49905808419" transform="translate(0,0)" class="0 highcharts-3d-side highcharts-point highcharts-color-6" visibility="visible"></path><path fill="rgb(18,119,118)" d="M 363.10815048939725 120.34799851150603 C 364.0091676075709 120.12163116610672 364.7790865060801 119.94880314047626 365.6997708811372 119.7662429053567 L 365.6997708811372 143.63109677040268 C 364.7790865060801 143.81365700552223 364.0091676075709 143.9864850311527 363.10815048939725 144.212852376552 Z" data-z-index="34138.89803846892" transform="translate(0,0)" class="0 highcharts-3d-side highcharts-point highcharts-color-7" visibility="visible"></path><path fill="rgb(18,119,118)" d="M 363.10815048939725 120.34799851150603 C 364.0091676075709 120.12163116610672 364.7790865060801 119.94880314047626 365.6997708811372 119.7662429053567 L 365.6997708811372 143.63109677040268 C 364.7790865060801 143.81365700552223 364.0091676075709 143.9864850311527 363.10815048939725 144.212852376552 Z" data-z-index="34138.89803846892" transform="translate(0,0)" class="0 highcharts-3d-side highcharts-point highcharts-color-7" visibility="visible"></path><path fill="rgb(203,186,59)" d="M 363.10777357384717 120.34809320751464 L 363.10777357384717 144.2129470725606 L 363.10777357384717 144.2129470725606 L 363.10777357384717 120.34809320751464 Z" data-z-index="40925.50905808424" transform="translate(0,0)" class="0 highcharts-3d-side highcharts-point highcharts-color-6" visibility="visible"></path><path fill="rgb(216,67,103)" d="M 357.83790218511905 121.9827449032891 L 357.83790218511905 145.84759876833508 L 357.83790218511905 145.84759876833508 L 357.83790218511905 121.9827449032891 Z" data-z-index="40926.4990580842" transform="translate(0,0)" class="0 highcharts-3d-side highcharts-point highcharts-color-5" visibility="visible"></path><path fill="rgb(203,186,59)" d="M 360.43139450142155 121.09826340444472 C 361.3585641967164 120.81067025390503 362.153751043016 120.58778498356695 363.10777357384717 120.34809320751464 L 363.10777357384717 144.2129470725606 C 362.153751043016 144.45263884861293 361.3585641967164 144.67552411895102 360.43139450142155 144.9631172694907 Z" data-z-index="41338.89803846893" transform="translate(0,0)" class="0 highcharts-3d-side highcharts-point highcharts-color-6" visibility="visible"></path><path fill="rgb(203,186,59)" d="M 360.43139450142155 121.09826340444472 C 361.3585641967164 120.81067025390503 362.153751043016 120.58778498356695 363.10777357384717 120.34809320751464 L 363.10777357384717 144.2129470725606 C 362.153751043016 144.45263884861293 361.3585641967164 144.67552411895102 360.43139450142155 144.9631172694907 Z" data-z-index="41338.89803846893" transform="translate(0,0)" class="0 highcharts-3d-side highcharts-point highcharts-color-6" visibility="visible"></path><path fill="rgb(216,67,103)" d="M 360.43102819635317 121.09837702793892 L 360.43102819635317 144.9632308929849 L 360.43102819635317 144.9632308929849 L 360.43102819635317 121.09837702793892 Z" data-z-index="48053.509058084244" transform="translate(0,0)" class="0 highcharts-3d-side highcharts-point highcharts-color-5" visibility="visible"></path><path fill="rgb(103,108,208)" d="M 355.2054997650912 123.05689807329189 L 355.2054997650912 146.92175193833788 L 355.2054997650912 146.92175193833788 L 355.2054997650912 123.05689807329189 Z" data-z-index="48054.499058084206" transform="translate(0,0)" class="0 highcharts-3d-side highcharts-point highcharts-color-4" visibility="visible"></path><path fill="rgb(216,67,103)" d="M 357.83790218511905 121.9827449032891 C 358.73341128349784 121.64873387123431 359.503862568286 121.38597673454402 360.43102819635317 121.09837702793892 L 360.43102819635317 144.9632308929849 C 359.503862568286 145.25083059959 358.73341128349784 145.5135877362803 357.83790218511905 145.84759876833508 Z" data-z-index="48538.898038468935" transform="translate(0,0)" class="0 highcharts-3d-side highcharts-point highcharts-color-5" visibility="visible"></path><path fill="rgb(216,67,103)" d="M 357.83790218511905 121.9827449032891 C 358.73341128349784 121.64873387123431 359.503862568286 121.38597673454402 360.43102819635317 121.09837702793892 L 360.43102819635317 144.9632308929849 C 359.503862568286 145.25083059959 358.73341128349784 145.5135877362803 357.83790218511905 145.84759876833508 Z" data-z-index="48538.898038468935" transform="translate(0,0)" class="0 highcharts-3d-side highcharts-point highcharts-color-5" visibility="visible"></path><path fill="rgb(103,108,208)" d="M 357.83754838863763 121.98287686549912 L 357.83754838863763 145.8477307305451 L 357.83754838863763 145.8477307305451 L 357.83754838863763 121.98287686549912 Z" data-z-index="55577.509058084295" transform="translate(0,0)" class="0 highcharts-3d-side highcharts-point highcharts-color-4" visibility="visible"></path><path fill="rgb(222,138,67)" d="M 352.15301752774604 124.55869383819473 L 352.15301752774604 148.4235477032407 L 352.15301752774604 148.4235477032407 L 352.15301752774604 124.55869383819473 Z" data-z-index="55578.49905808426" transform="translate(0,0)" class="0 highcharts-3d-side highcharts-point highcharts-color-3" visibility="visible"></path><path fill="rgb(103,108,208)" d="M 355.2054997650912 123.05689807329189 C 356.11017985167126 122.65459618327012 356.892286860178 122.33545332763101 357.83754838863763 121.98287686549912 L 357.83754838863763 145.8477307305451 C 356.892286860178 146.200307192677 356.11017985167126 146.5194500483161 355.2054997650912 146.92175193833788 Z" data-z-index="56138.898038468986" transform="translate(0,0)" class="0 highcharts-3d-side highcharts-point highcharts-color-4" visibility="visible"></path><path fill="rgb(103,108,208)" d="M 355.2054997650912 123.05689807329189 C 356.11017985167126 122.65459618327012 356.892286860178 122.33545332763101 357.83754838863763 121.98287686549912 L 357.83754838863763 145.8477307305451 C 356.892286860178 146.200307192677 356.11017985167126 146.5194500483161 355.2054997650912 146.92175193833788 Z" data-z-index="56138.898038468986" transform="translate(0,0)" class="0 highcharts-3d-side highcharts-point highcharts-color-4" visibility="visible"></path><path fill="rgb(222,138,67)" d="M 355.2051611595612 123.05704864934421 L 355.2051611595612 146.92190251439018 L 355.2051611595612 146.92190251439018 L 355.2051611595612 123.05704864934421 Z" data-z-index="64784.509058084295" transform="translate(0,0)" class="0 highcharts-3d-side highcharts-point highcharts-color-3" visibility="visible"></path><path fill="rgb(119,212,100)" d="M 348.50024327309103 126.80082151133475 L 348.50024327309103 150.66567537638073 L 348.50024327309103 150.66567537638073 L 348.50024327309103 126.80082151133475 Z" data-z-index="64785.49905808426" transform="translate(0,0)" class="0 highcharts-3d-side highcharts-point highcharts-color-2" visibility="visible"></path><path fill="rgb(222,138,67)" d="M 352.15301752774604 124.55869383819473 C 353.19064760169516 123.99582193936291 354.09809875412844 123.5493587903276 355.2051611595612 123.05704864934421 L 355.2051611595612 146.92190251439018 C 354.09809875412844 147.41421265537357 353.19064760169516 147.86067580440888 352.15301752774604 148.4235477032407 Z" data-z-index="65438.898038468986" transform="translate(0,0)" class="0 highcharts-3d-side highcharts-point highcharts-color-3" visibility="visible"></path><path fill="rgb(222,138,67)" d="M 352.15301752774604 124.55869383819473 C 353.19064760169516 123.99582193936291 354.09809875412844 123.5493587903276 355.2051611595612 123.05704864934421 L 355.2051611595612 146.92190251439018 C 354.09809875412844 147.41421265537357 353.19064760169516 147.86067580440888 352.15301752774604 148.4235477032407 Z" data-z-index="65438.898038468986" transform="translate(0,0)" class="0 highcharts-3d-side highcharts-point highcharts-color-3" visibility="visible"></path><path fill="rgb(119,212,100)" d="M 352.1527001609681 124.55886599848087 L 352.1527001609681 148.42371986352686 L 352.1527001609681 148.42371986352686 L 352.1527001609681 124.55886599848087 Z" data-z-index="76763.50905808432" transform="translate(0,0)" class="0 highcharts-3d-side highcharts-point highcharts-color-2" visibility="visible"></path><path fill="rgb(42,42,47)" d="M 344.7880110607259 129.76123905967486 L 344.7880110607259 153.62609292472084 L 344.7880110607259 153.62609292472084 L 344.7880110607259 129.76123905967486 Z" data-z-index="76764.4990580843" transform="translate(0,0)" class="0 highcharts-3d-side highcharts-point highcharts-color-1" visibility="visible"></path><path fill="rgb(119,212,100)" d="M 348.50024327309103 126.80082151133475 C 349.7154253507206 125.95858917570735 350.8026420952091 125.29123247614892 352.1527001609681 124.55886599848087 L 352.1527001609681 148.42371986352686 C 350.8026420952091 149.1560863411949 349.7154253507206 149.82344304075332 348.50024327309103 150.66567537638073 Z" data-z-index="77538.89803846902" transform="translate(0,0)" class="0 highcharts-3d-side highcharts-point highcharts-color-2" visibility="visible"></path><path fill="rgb(119,212,100)" d="M 348.50024327309103 126.80082151133475 C 349.7154253507206 125.95858917570735 350.8026420952091 125.29123247614892 352.1527001609681 124.55886599848087 L 352.1527001609681 148.42371986352686 C 350.8026420952091 149.1560863411949 349.7154253507206 149.82344304075332 348.50024327309103 150.66567537638073 Z" data-z-index="77538.89803846902" transform="translate(0,0)" class="0 highcharts-3d-side highcharts-point highcharts-color-2" visibility="visible"></path><path fill="rgb(42,42,47)" d="M 348.49995761496933 126.80101950052324 L 348.49995761496933 150.6658733655692 L 348.49995761496933 150.6658733655692 L 348.49995761496933 126.80101950052324 Z" data-z-index="90623.50905808422" transform="translate(0,0)" class="0 highcharts-3d-side highcharts-point highcharts-color-1" visibility="visible"></path><path fill="rgb(99,156,211)" d="M 341.4815579628676 133.33053188137887 L 341.4815579628676 157.19538574642485 L 341.4815579628676 157.19538574642485 L 341.4815579628676 133.33053188137887 Z" data-z-index="90624.49905808427" transform="translate(0,0)" class="0 highcharts-3d-side highcharts-point highcharts-color-0" visibility="visible"></path><path fill="rgb(42,42,47)" d="M 344.7880110607259 129.76123905967486 C 345.9879557630903 128.65754508593608 347.09395983314425 127.77552406735968 348.49995761496933 126.80101950052324 L 348.49995761496933 150.6658733655692 C 347.09395983314425 151.64037793240567 345.9879557630903 152.52239895098205 344.7880110607259 153.62609292472084 Z" data-z-index="91538.8980384689" transform="translate(0,0)" class="0 highcharts-3d-side highcharts-point highcharts-color-1" visibility="visible"></path><path fill="rgb(42,42,47)" d="M 344.7880110607259 129.76123905967486 C 345.9879557630903 128.65754508593608 347.09395983314425 127.77552406735968 348.49995761496933 126.80101950052324 L 348.49995761496933 150.6658733655692 C 347.09395983314425 151.64037793240567 345.9879557630903 152.52239895098205 344.7880110607259 153.62609292472084 Z" data-z-index="91538.8980384689" transform="translate(0,0)" class="0 highcharts-3d-side highcharts-point highcharts-color-1" visibility="visible"></path><path fill="rgb(99,156,211)" d="M 344.78776726941635 129.76146329816103 L 344.78776726941635 153.626317163207 L 344.78776726941635 153.626317163207 L 344.78776726941635 129.76146329816103 Z" data-z-index="105572.50905808428" transform="translate(0,0)" class="0 highcharts-3d-side highcharts-point highcharts-color-0" visibility="visible"></path><path fill="rgb(120,207,200)" d="M 338.76861603806094 137.61004088622505 L 338.76861603806094 161.47489475127102 L 338.76861603806094 161.47489475127102 L 338.76861603806094 137.61004088622505 Z" data-z-index="105573.49905808433" transform="translate(0,0)" class="0 highcharts-3d-side highcharts-point highcharts-color-9" visibility="visible"></path><path fill="rgb(99,156,211)" d="M 341.4815579628676 133.33053188137887 C 342.50781931369835 132.01599376924636 343.4935512978472 130.95189143031394 344.78776726941635 129.76146329816103 L 344.78776726941635 153.626317163207 C 343.4935512978472 154.8167452953599 342.50781931369835 155.88084763429234 341.4815579628676 157.19538574642485 Z" data-z-index="106638.89803846898" transform="translate(0,0)" class="0 highcharts-3d-side highcharts-point highcharts-color-0" visibility="visible"></path><path fill="rgb(99,156,211)" d="M 341.4815579628676 133.33053188137887 C 342.50781931369835 132.01599376924636 343.4935512978472 130.95189143031394 344.78776726941635 129.76146329816103 L 344.78776726941635 153.626317163207 C 343.4935512978472 154.8167452953599 342.50781931369835 155.88084763429234 341.4815579628676 157.19538574642485 Z" data-z-index="106638.89803846898" transform="translate(0,0)" class="0 highcharts-3d-side highcharts-point highcharts-color-0" visibility="visible"></path><path fill="rgb(120,207,200)" d="M 341.4813646491465 133.33077949984067 L 341.4813646491465 157.19563336488665 L 341.4813646491465 157.19563336488665 L 341.4813646491465 133.33077949984067 Z" data-z-index="122006.50905808424" transform="translate(0,0)" class="0 highcharts-3d-side highcharts-point highcharts-color-9" visibility="visible"></path><path fill="rgb(219,66,66)" d="M 336.8661430353858 143.18179478625737 L 336.8661430353858 167.04664865130334 L 336.8661430353858 167.04664865130334 L 336.8661430353858 143.18179478625737 Z" data-z-index="122007.49905808429" transform="translate(0,0)" class="0 highcharts-3d-side highcharts-point highcharts-color-8" visibility="visible"></path><path fill="rgb(120,207,200)" d="M 338.76861603806094 137.61004088622505 C 339.5436197779314 136.0529540380995 340.353170491922 134.77591749422544 341.4813646491465 133.33077949984067 L 341.4813646491465 157.19563336488665 C 340.353170491922 158.6407713592714 339.5436197779314 159.91780790314547 338.76861603806094 161.47489475127102 Z" data-z-index="123238.89803846892" transform="translate(0,0)" class="0 highcharts-3d-side highcharts-point highcharts-color-9" visibility="visible"></path><path fill="rgb(120,207,200)" d="M 338.76861603806094 137.61004088622505 C 339.5436197779314 136.0529540380995 340.353170491922 134.77591749422544 341.4813646491465 133.33077949984067 L 341.4813646491465 157.19563336488665 C 340.353170491922 158.6407713592714 339.5436197779314 159.91780790314547 338.76861603806094 161.47489475127102 Z" data-z-index="123238.89803846892" transform="translate(0,0)" class="0 highcharts-3d-side highcharts-point highcharts-color-9" visibility="visible"></path><path fill="rgb(219,66,66)" d="M 338.76848324587223 137.61030768786918 L 338.76848324587223 161.47516155291515 L 338.76848324587223 161.47516155291515 L 338.76848324587223 137.61030768786918 Z" data-z-index="142103.50905808428" transform="translate(0,0)" class="0 highcharts-3d-side highcharts-point highcharts-color-8" visibility="visible"></path><path fill="rgb(18,119,118)" d="M 336.7399706684755 150.09354711911027 L 336.7399706684755 173.95840098415624 L 336.7399706684755 173.95840098415624 L 336.7399706684755 150.09354711911027 Z" data-z-index="142104.4990580843" transform="translate(0,0)" class="0 highcharts-3d-side highcharts-point highcharts-color-7" visibility="visible"></path><path fill="rgb(219,66,66)" d="M 336.8661430353858 143.18179478625737 C 337.251525617265 141.18161443033023 337.8207542308691 139.5144836725159 338.76848324587223 137.61030768786918 L 338.76848324587223 161.47516155291515 C 337.8207542308691 163.37933753756187 337.251525617265 165.0464682953762 336.8661430353858 167.04664865130334 Z" data-z-index="143538.89803846896" transform="translate(0,0)" class="0 highcharts-3d-side highcharts-point highcharts-color-8" visibility="visible"></path><path fill="rgb(219,66,66)" d="M 336.8661430353858 143.18179478625737 C 337.251525617265 141.18161443033023 337.8207542308691 139.5144836725159 338.76848324587223 137.61030768786918 L 338.76848324587223 161.47516155291515 C 337.8207542308691 163.37933753756187 337.251525617265 165.0464682953762 336.8661430353858 167.04664865130334 Z" data-z-index="143538.89803846896" transform="translate(0,0)" class="0 highcharts-3d-side highcharts-point highcharts-color-8" visibility="visible"></path><path fill="rgb(99,156,211)" d="M 376.4918530718522 118.71572933919312 L 376.4918530718522 142.5805832042391 L 376.4918530718522 142.5805832042391 L 376.4918530718522 118.71572933919312 Z" data-z-index="149666.84635269476" transform="translate(0,0)" class="0 highcharts-3d-side highcharts-point highcharts-color-0" visibility="visible"></path><path fill="rgb(42,42,47)" d="M 391.0319571589159 173.35168136126643 L 391.0319571589159 197.2165352263124 L 391.0319571589159 197.2165352263124 L 391.0319571589159 173.35168136126643 Z" data-z-index="149667.83635269478" transform="translate(0,0)" class="0 highcharts-3d-side highcharts-point highcharts-color-1" visibility="visible"></path><path fill="rgb(99,156,211)" d="M 376.4918530718522 118.71572933919312 C 397.7562012838307 118.71266687526979 415.17629550943167 130.32192023485976 416.4303766049515 145.33191364331108 L 416.4303766049515 169.19676750835706 C 415.17629550943167 154.18677409990573 397.7562012838307 142.57752074031578 376.4918530718522 142.5805832042391 Z" data-z-index="151178.63267948964" transform="translate(0,0)" class="0 highcharts-3d-side highcharts-point highcharts-color-0" visibility="visible"></path><path fill="rgb(99,156,211)" d="M 376.4918530718522 118.71572933919312 C 397.7562012838307 118.71266687526979 415.17629550943167 130.32192023485976 416.4303766049515 145.33191364331108 L 416.4303766049515 169.19676750835706 C 415.17629550943167 154.18677409990573 397.7562012838307 142.57752074031578 376.4918530718522 142.5805832042391 Z" data-z-index="151178.63267948964" transform="translate(0,0)" class="0 highcharts-3d-side highcharts-point highcharts-color-0" visibility="visible"></path><path fill="rgb(18,119,118)" d="M 336.8660890397915 143.18207504013853 L 336.8660890397915 167.0469289051845 L 336.8660890397915 167.0469289051845 L 336.8660890397915 143.18207504013853 Z" data-z-index="166358.50905808428" transform="translate(0,0)" class="0 highcharts-3d-side highcharts-point highcharts-color-7" visibility="visible"></path><path fill="rgb(203,186,59)" d="M 339.10078583331426 157.03241694992712 L 339.10078583331426 180.8972708149731 L 339.10078583331426 180.8972708149731 L 339.10078583331426 157.03241694992712 Z" data-z-index="166359.49905808424" transform="translate(0,0)" class="0 highcharts-3d-side highcharts-point highcharts-color-6" visibility="visible"></path><path fill="rgb(18,119,118)" d="M 336.7399706684755 150.09354711911027 C 336.57139443343954 149.0102282311866 336.5 148.08985723213712 336.5 147 L 336.5 170.86485386504597 C 336.5 169.51837878333407 336.60905199867653 168.38108074265222 336.8660890397915 167.0469289051845 L 336.8660890397915 143.18207504013853 C 336.60905199867653 144.51622687760624 336.5 145.6535249182881 336.5 147 L 336.5 170.86485386504597 C 336.5 171.9547110971831 336.57139443343954 172.87508209623257 336.7399706684755 173.95840098415624 Z" data-z-index="168038.89803846896" transform="translate(0,0)" class="0 highcharts-3d-side highcharts-point highcharts-color-7" visibility="visible"></path><path fill="rgb(18,119,118)" d="M 336.7399706684755 150.09354711911027 C 336.3631252279404 147.67183101261082 336.4010023422135 145.59610949005278 336.8660890397915 143.18207504013853 L 336.8660890397915 167.0469289051845 C 336.4010023422135 169.46096335509876 336.3631252279404 171.5366848776568 336.7399706684755 173.95840098415624 Z" data-z-index="168038.89803846896" transform="translate(0,0)" class="0 highcharts-3d-side highcharts-point highcharts-color-7" visibility="visible"></path><path fill="rgb(203,186,59)" d="M 336.7400144198264 150.0938282648192 L 336.7400144198264 173.95868212986517 L 336.7400144198264 173.95868212986517 L 336.7400144198264 150.0938282648192 Z" data-z-index="191405.50905808428" transform="translate(0,0)" class="0 highcharts-3d-side highcharts-point highcharts-color-6" visibility="visible"></path><path fill="rgb(216,67,103)" d="M 344.2874696638138 163.7683166916105 L 344.2874696638138 187.63317055665647 L 344.2874696638138 187.63317055665647 L 344.2874696638138 163.7683166916105 Z" data-z-index="191406.49905808424" transform="translate(0,0)" class="0 highcharts-3d-side highcharts-point highcharts-color-5" visibility="visible"></path><path fill="rgb(203,186,59)" d="M 339.10078583331426 157.03241694992712 C 337.8387633258515 154.6801099098913 337.129200886449 152.59462129151535 336.7400144198264 150.0938282648192 L 336.7400144198264 173.95868212986517 C 337.129200886449 176.45947515656133 337.8387633258515 178.5449637749373 339.10078583331426 180.8972708149731 Z" data-z-index="193338.89803846896" transform="translate(0,0)" class="0 highcharts-3d-side highcharts-point highcharts-color-6" visibility="visible"></path><path fill="rgb(203,186,59)" d="M 339.10078583331426 157.03241694992712 C 337.8387633258515 154.6801099098913 337.129200886449 152.59462129151535 336.7400144198264 150.0938282648192 L 336.7400144198264 173.95868212986517 C 337.129200886449 176.45947515656133 337.8387633258515 178.5449637749373 339.10078583331426 180.8972708149731 Z" data-z-index="193338.89803846896" transform="translate(0,0)" class="0 highcharts-3d-side highcharts-point highcharts-color-6" visibility="visible"></path><path fill="rgb(216,67,103)" d="M 339.10092771498535 157.03268140180498 L 339.10092771498535 180.89753526685095 L 339.10092771498535 180.89753526685095 L 339.10092771498535 157.03268140180498 Z" data-z-index="218333.5090580843" transform="translate(0,0)" class="0 highcharts-3d-side highcharts-point highcharts-color-5" visibility="visible"></path><path fill="rgb(103,108,208)" d="M 353.1544170020034 169.96719132244573 L 353.1544170020034 193.8320451874917 L 353.1544170020034 193.8320451874917 L 353.1544170020034 169.96719132244573 Z" data-z-index="218334.49905808427" transform="translate(0,0)" class="0 highcharts-3d-side highcharts-point highcharts-color-4" visibility="visible"></path><path fill="rgb(216,67,103)" d="M 344.2874696638138 163.7683166916105 C 342.0196914608382 161.5900755627427 340.45776612750143 159.56164129978623 339.10092771498535 157.03268140180498 L 339.10092771498535 180.89753526685095 C 340.45776612750143 183.4264951648322 342.0196914608382 185.45492942778867 344.2874696638138 187.63317055665647 Z" data-z-index="220538.898038469" transform="translate(0,0)" class="0 highcharts-3d-side highcharts-point highcharts-color-5" visibility="visible"></path><path fill="rgb(216,67,103)" d="M 344.2874696638138 163.7683166916105 C 342.0196914608382 161.5900755627427 340.45776612750143 159.56164129978623 339.10092771498535 157.03268140180498 L 339.10092771498535 180.89753526685095 C 340.45776612750143 183.4264951648322 342.0196914608382 185.45492942778867 344.2874696638138 187.63317055665647 Z" data-z-index="220538.898038469" transform="translate(0,0)" class="0 highcharts-3d-side highcharts-point highcharts-color-5" visibility="visible"></path><path fill="rgb(103,108,208)" d="M 344.28770680523326 163.76854446775846 L 344.28770680523326 187.63339833280443 L 344.28770680523326 187.63339833280443 L 344.28770680523326 163.76854446775846 Z" data-z-index="249320.50905808428" transform="translate(0,0)" class="0 highcharts-3d-side highcharts-point highcharts-color-4" visibility="visible"></path><path fill="rgb(222,138,67)" d="M 367.022838052613 174.4789319426993 L 367.022838052613 198.34378580774526 L 367.022838052613 198.34378580774526 L 367.022838052613 174.4789319426993 Z" data-z-index="249321.4990580843" transform="translate(0,0)" class="0 highcharts-3d-side highcharts-point highcharts-color-3" visibility="visible"></path><path fill="rgb(103,108,208)" d="M 353.1544170020034 169.96719132244573 C 349.58007156117554 168.15057437131668 346.897367238944 166.27511703257184 344.28770680523326 163.76854446775846 L 344.28770680523326 187.63339833280443 C 346.897367238944 190.13997089761781 349.58007156117554 192.01542823636265 353.1544170020034 193.8320451874917 Z" data-z-index="251838.89803846896" transform="translate(0,0)" class="0 highcharts-3d-side highcharts-point highcharts-color-4" visibility="visible"></path><path fill="rgb(103,108,208)" d="M 353.1544170020034 169.96719132244573 C 349.58007156117554 168.15057437131668 346.897367238944 166.27511703257184 344.28770680523326 163.76854446775846 L 344.28770680523326 187.63339833280443 C 346.897367238944 190.13997089761781 349.58007156117554 192.01542823636265 353.1544170020034 193.8320451874917 Z" data-z-index="251838.89803846896" transform="translate(0,0)" class="0 highcharts-3d-side highcharts-point highcharts-color-4" visibility="visible"></path><path fill="rgb(42,42,47)" d="M 416.43040019325844 145.33219599379518 L 416.43040019325844 169.19704985884115 L 416.43040019325844 169.19704985884115 L 416.43040019325844 145.33219599379518 Z" data-z-index="274208.8463526948" transform="translate(0,0)" class="0 highcharts-3d-side highcharts-point highcharts-color-1" visibility="visible"></path><path fill="rgb(119,212,100)" d="M 367.0232266638692 174.47899895498014 L 367.0232266638692 198.34385282002611 L 367.0232266638692 198.34385282002611 L 367.0232266638692 174.47899895498014 Z" data-z-index="274209.8363526947" transform="translate(0,0)" class="0 highcharts-3d-side highcharts-point highcharts-color-2" visibility="visible"></path><path fill="rgb(42,42,47)" d="M 416.5 147 C 416.5 158.92349924887478 406.74216980479827 169.01988685454108 391.0319571589159 173.35168136126643 L 391.0319571589159 197.2165352263124 C 406.74216980479827 192.88474071958706 416.5 182.78835311392075 416.5 170.86485386504597 Z" data-z-index="276978.6326794897" transform="translate(0,0)" class="0 highcharts-3d-side highcharts-point highcharts-color-1" visibility="visible"></path><path fill="rgb(42,42,47)" d="M 416.43040019325844 145.33219599379518 C 417.4736309285853 157.8206600460852 407.51523926001227 168.80672754887814 391.0319571589159 173.35168136126643 L 391.0319571589159 197.2165352263124 C 407.51523926001227 192.67158141392412 417.4736309285853 181.68551391113118 416.43040019325844 169.19704985884115 Z" data-z-index="276978.6326794897" transform="translate(0,0)" class="0 highcharts-3d-side highcharts-point highcharts-color-1" visibility="visible"></path><path fill="rgb(222,138,67)" d="M 353.1547418083053 169.96735639949785 L 353.1547418083053 193.83221026454382 L 353.1547418083053 193.83221026454382 L 353.1547418083053 169.96735639949785 Z" data-z-index="287336.5090580843" transform="translate(0,0)" class="0 highcharts-3d-side highcharts-point highcharts-color-3" visibility="visible"></path><path fill="rgb(119,212,100)" d="M 391.0315844891376 173.35178411640337 L 391.0315844891376 197.21663798144934 L 391.0315844891376 197.21663798144934 L 391.0315844891376 173.35178411640337 Z" data-z-index="287337.4990580843" transform="translate(0,0)" class="0 highcharts-3d-side highcharts-point highcharts-color-2" visibility="visible"></path><path fill="rgb(222,138,67)" d="M 367.022838052613 174.4789319426993 C 361.7762382931838 173.57418652361028 357.53993868610263 172.19603155812058 353.1547418083053 169.96735639949785 L 353.1547418083053 193.83221026454382 C 357.53993868610263 196.06088542316655 361.7762382931838 197.43904038865625 367.022838052613 198.34378580774526 Z" data-z-index="290238.89803846896" transform="translate(0,0)" class="0 highcharts-3d-side highcharts-point highcharts-color-3" visibility="visible"></path><path fill="rgb(222,138,67)" d="M 367.022838052613 174.4789319426993 C 361.7762382931838 173.57418652361028 357.53993868610263 172.19603155812058 353.1547418083053 169.96735639949785 L 353.1547418083053 193.83221026454382 C 357.53993868610263 196.06088542316655 361.7762382931838 197.43904038865625 367.022838052613 198.34378580774526 Z" data-z-index="290238.89803846896" transform="translate(0,0)" class="0 highcharts-3d-side highcharts-point highcharts-color-3" visibility="visible"></path><path fill="rgb(119,212,100)" d="M 391.0315844891376 173.35178411640337 C 383.02582943381645 175.55915469654792 375.37143313927277 175.9185357565251 367.0232266638692 174.47899895498014 L 367.0232266638692 198.34385282002611 C 375.37143313927277 199.78338962157108 383.02582943381645 199.4240085615939 391.0315844891376 197.21663798144934 Z" data-z-index="307529.1326794897" transform="translate(0,0)" class="0 highcharts-3d-side highcharts-point highcharts-color-2" visibility="visible"></path><path fill="rgb(119,212,100)" d="M 391.0315844891376 173.35178411640337 C 383.02582943381645 175.55915469654792 375.37143313927277 175.9185357565251 367.0232266638692 174.47899895498014 L 367.0232266638692 198.34385282002611 C 375.37143313927277 199.78338962157108 383.02582943381645 199.4240085615939 391.0315844891376 197.21663798144934 Z" data-z-index="307529.1326794897" transform="translate(0,0)" class="0 highcharts-3d-side highcharts-point highcharts-color-2" visibility="visible"></path><g data-z-index="31416026.53589793" stroke="#7cb5ec" stroke-width="1" stroke-linejoin="round"><path fill="#7cb5ec" d="M 376.4918530718522 118.71572933919312 C 397.7562012838307 118.71266687526979 415.17629550943167 130.32192023485976 416.4303766049515 145.33191364331108 L 416.4303766049515 145.33191364331108 C 415.17629550943167 130.32192023485976 397.7562012838307 118.71266687526979 376.4918530718522 118.71572933919312 Z" data-z-index="314160.2653589793" transform="translate(0,0)" class="highcharts-point highcharts-color-0" visibility="visible"></path></g><g data-z-index="31416026.53589793" stroke="#434348" stroke-width="1" stroke-linejoin="round"><path fill="#434348" d="M 416.43040019325844 145.33219599379518 C 417.4736309285853 157.8206600460852 407.51523926001227 168.80672754887814 391.0319571589159 173.35168136126643 L 391.0319571589159 173.35168136126643 C 407.51523926001227 168.80672754887814 417.4736309285853 157.8206600460852 416.43040019325844 145.33219599379518 Z" data-z-index="314160.2653589793" transform="translate(0,0)" class="highcharts-point highcharts-color-1" visibility="visible"></path></g><g data-z-index="31416026.53589793" stroke="#90ed7d" stroke-width="1" stroke-linejoin="round"><path fill="#90ed7d" d="M 391.0315844891376 173.35178411640337 C 383.02582943381645 175.55915469654792 375.37143313927277 175.9185357565251 367.0232266638692 174.47899895498014 L 367.0232266638692 174.47899895498014 C 375.37143313927277 175.9185357565251 383.02582943381645 175.55915469654792 391.0315844891376 173.35178411640337 Z" data-z-index="314160.2653589793" transform="translate(0,0)" class="highcharts-point highcharts-color-2" visibility="visible"></path></g><g data-z-index="31416026.53589793" stroke="#f7a35c" stroke-width="1" stroke-linejoin="round"><path fill="#f7a35c" d="M 367.022838052613 174.4789319426993 C 361.7762382931838 173.57418652361028 357.53993868610263 172.19603155812058 353.1547418083053 169.96735639949785 L 353.1547418083053 169.96735639949785 C 357.53993868610263 172.19603155812058 361.7762382931838 173.57418652361028 367.022838052613 174.4789319426993 Z" data-z-index="314160.2653589793" transform="translate(0,0)" class="highcharts-point highcharts-color-3" visibility="visible"></path></g><g data-z-index="31416026.53589793" stroke="#8085e9" stroke-width="1" stroke-linejoin="round"><path fill="#8085e9" d="M 353.1544170020034 169.96719132244573 C 349.58007156117554 168.15057437131668 346.897367238944 166.27511703257184 344.28770680523326 163.76854446775846 L 344.28770680523326 163.76854446775846 C 346.897367238944 166.27511703257184 349.58007156117554 168.15057437131668 353.1544170020034 169.96719132244573 Z" data-z-index="314160.2653589793" transform="translate(0,0)" class="highcharts-point highcharts-color-4" visibility="visible"></path></g><g data-z-index="31416026.53589793" stroke="#f15c80" stroke-width="1" stroke-linejoin="round"><path fill="#f15c80" d="M 344.2874696638138 163.7683166916105 C 342.0196914608382 161.5900755627427 340.45776612750143 159.56164129978623 339.10092771498535 157.03268140180498 L 339.10092771498535 157.03268140180498 C 340.45776612750143 159.56164129978623 342.0196914608382 161.5900755627427 344.2874696638138 163.7683166916105 Z" data-z-index="314160.2653589793" transform="translate(0,0)" class="highcharts-point highcharts-color-5" visibility="visible"></path></g><g data-z-index="31416026.53589793" stroke="#e4d354" stroke-width="1" stroke-linejoin="round"><path fill="#e4d354" d="M 339.10078583331426 157.03241694992712 C 337.8387633258515 154.6801099098913 337.129200886449 152.59462129151535 336.7400144198264 150.0938282648192 L 336.7400144198264 150.0938282648192 C 337.129200886449 152.59462129151535 337.8387633258515 154.6801099098913 339.10078583331426 157.03241694992712 Z" data-z-index="314160.2653589793" transform="translate(0,0)" class="highcharts-point highcharts-color-6" visibility="visible"></path></g><g data-z-index="31416026.53589793" stroke="#2b908f" stroke-width="1" stroke-linejoin="round"><path fill="#2b908f" d="M 336.7399706684755 150.09354711911027 C 336.3631252279404 147.67183101261082 336.4010023422135 145.59610949005278 336.8660890397915 143.18207504013853 L 336.8660890397915 143.18207504013853 C 336.4010023422135 145.59610949005278 336.3631252279404 147.67183101261082 336.7399706684755 150.09354711911027 Z" data-z-index="314160.2653589793" transform="translate(0,0)" class="highcharts-point highcharts-color-7" visibility="visible"></path></g><g data-z-index="31416026.53589793" stroke="#f45b5b" stroke-width="1" stroke-linejoin="round"><path fill="#f45b5b" d="M 336.8661430353858 143.18179478625737 C 337.251525617265 141.18161443033023 337.8207542308691 139.5144836725159 338.76848324587223 137.61030768786918 L 338.76848324587223 137.61030768786918 C 337.8207542308691 139.5144836725159 337.251525617265 141.18161443033023 336.8661430353858 143.18179478625737 Z" data-z-index="314160.2653589793" transform="translate(0,0)" class="highcharts-point highcharts-color-8" visibility="visible"></path></g><g data-z-index="31416026.53589793" stroke="#91e8e1" stroke-width="1" stroke-linejoin="round"><path fill="#91e8e1" d="M 338.76861603806094 137.61004088622505 C 339.5436197779314 136.0529540380995 340.353170491922 134.77591749422544 341.4813646491465 133.33077949984067 L 341.4813646491465 133.33077949984067 C 340.353170491922 134.77591749422544 339.5436197779314 136.0529540380995 338.76861603806094 137.61004088622505 Z" data-z-index="314160.2653589793" transform="translate(0,0)" class="highcharts-point highcharts-color-9" visibility="visible"></path></g><g data-z-index="31416026.53589793" stroke="#7cb5ec" stroke-width="1" stroke-linejoin="round"><path fill="#7cb5ec" d="M 341.4815579628676 133.33053188137887 C 342.50781931369835 132.01599376924636 343.4935512978472 130.95189143031394 344.78776726941635 129.76146329816103 L 344.78776726941635 129.76146329816103 C 343.4935512978472 130.95189143031394 342.50781931369835 132.01599376924636 341.4815579628676 133.33053188137887 Z" data-z-index="314160.2653589793" transform="translate(0,0)" class="highcharts-point highcharts-color-0" visibility="visible"></path></g><g data-z-index="31416026.53589793" stroke="#434348" stroke-width="1" stroke-linejoin="round"><path fill="#434348" d="M 344.7880110607259 129.76123905967486 C 345.9879557630903 128.65754508593608 347.09395983314425 127.77552406735968 348.49995761496933 126.80101950052324 L 348.49995761496933 126.80101950052324 C 347.09395983314425 127.77552406735968 345.9879557630903 128.65754508593608 344.7880110607259 129.76123905967486 Z" data-z-index="314160.2653589793" transform="translate(0,0)" class="highcharts-point highcharts-color-1" visibility="visible"></path></g><g data-z-index="31416026.53589793" stroke="#90ed7d" stroke-width="1" stroke-linejoin="round"><path fill="#90ed7d" d="M 348.50024327309103 126.80082151133475 C 349.7154253507206 125.95858917570735 350.8026420952091 125.29123247614892 352.1527001609681 124.55886599848087 L 352.1527001609681 124.55886599848087 C 350.8026420952091 125.29123247614892 349.7154253507206 125.95858917570735 348.50024327309103 126.80082151133475 Z" data-z-index="314160.2653589793" transform="translate(0,0)" class="highcharts-point highcharts-color-2" visibility="visible"></path></g><g data-z-index="31416026.53589793" stroke="#f7a35c" stroke-width="1" stroke-linejoin="round"><path fill="#f7a35c" d="M 352.15301752774604 124.55869383819473 C 353.19064760169516 123.99582193936291 354.09809875412844 123.5493587903276 355.2051611595612 123.05704864934421 L 355.2051611595612 123.05704864934421 C 354.09809875412844 123.5493587903276 353.19064760169516 123.99582193936291 352.15301752774604 124.55869383819473 Z" data-z-index="314160.2653589793" transform="translate(0,0)" class="highcharts-point highcharts-color-3" visibility="visible"></path></g><g data-z-index="31416026.53589793" stroke="#8085e9" stroke-width="1" stroke-linejoin="round"><path fill="#8085e9" d="M 355.2054997650912 123.05689807329189 C 356.11017985167126 122.65459618327012 356.892286860178 122.33545332763101 357.83754838863763 121.98287686549912 L 357.83754838863763 121.98287686549912 C 356.892286860178 122.33545332763101 356.11017985167126 122.65459618327012 355.2054997650912 123.05689807329189 Z" data-z-index="314160.2653589793" transform="translate(0,0)" class="highcharts-point highcharts-color-4" visibility="visible"></path></g><g data-z-index="31416026.53589793" stroke="#f15c80" stroke-width="1" stroke-linejoin="round"><path fill="#f15c80" d="M 357.83790218511905 121.9827449032891 C 358.73341128349784 121.64873387123431 359.503862568286 121.38597673454402 360.43102819635317 121.09837702793892 L 360.43102819635317 121.09837702793892 C 359.503862568286 121.38597673454402 358.73341128349784 121.64873387123431 357.83790218511905 121.9827449032891 Z" data-z-index="314160.2653589793" transform="translate(0,0)" class="highcharts-point highcharts-color-5" visibility="visible"></path></g><g data-z-index="31416026.53589793" stroke="#e4d354" stroke-width="1" stroke-linejoin="round"><path fill="#e4d354" d="M 360.43139450142155 121.09826340444472 C 361.3585641967164 120.81067025390503 362.153751043016 120.58778498356695 363.10777357384717 120.34809320751464 L 363.10777357384717 120.34809320751464 C 362.153751043016 120.58778498356695 361.3585641967164 120.81067025390503 360.43139450142155 121.09826340444472 Z" data-z-index="314160.2653589793" transform="translate(0,0)" class="highcharts-point highcharts-color-6" visibility="visible"></path></g><g data-z-index="31416026.53589793" stroke="#2b908f" stroke-width="1" stroke-linejoin="round"><path fill="#2b908f" d="M 363.10815048939725 120.34799851150603 C 364.0091676075709 120.12163116610672 364.7790865060801 119.94880314047626 365.6997708811372 119.7662429053567 L 365.6997708811372 119.7662429053567 C 364.7790865060801 119.94880314047626 364.0091676075709 120.12163116610672 363.10815048939725 120.34799851150603 Z" data-z-index="314160.2653589793" transform="translate(0,0)" class="highcharts-point highcharts-color-7" visibility="visible"></path></g><g data-z-index="31416026.53589793" stroke="#f45b5b" stroke-width="1" stroke-linejoin="round"><path fill="#f45b5b" d="M 365.70015602516355 119.76616653756591 C 366.5395939491553 119.59972286341007 367.2544744895337 119.47473595896956 368.106882341124 119.34538396610554 L 368.106882341124 119.34538396610554 C 367.2544744895337 119.47473595896956 366.5395939491553 119.59972286341007 365.70015602516355 119.76616653756591 Z" data-z-index="314160.2653589793" transform="translate(0,0)" class="highcharts-point highcharts-color-8" visibility="visible"></path></g><g data-z-index="31416026.53589793" stroke="#91e8e1" stroke-width="1" stroke-linejoin="round"><path fill="#91e8e1" d="M 368.1072734368742 119.34532461918417 C 368.78092322337824 119.24310395704329 369.35263579462196 119.16665770089698 370.0325566086325 119.08788635753773 L 370.0325566086325 119.08788635753773 C 369.35263579462196 119.16665770089698 368.78092322337824 119.24310395704329 368.1072734368742 119.34532461918417 Z" data-z-index="314160.2653589793" transform="translate(0,0)" class="highcharts-point highcharts-color-9" visibility="visible"></path></g><g data-z-index="31416026.53589793" stroke="#7cb5ec" stroke-width="1" stroke-linejoin="round"><path fill="#7cb5ec" d="M 370.03295134585255 119.08784062720255 C 370.6018429528653 119.02193655915197 371.0837265686624 118.97326003198117 371.65595962015783 118.9238956334888 L 371.65595962015783 118.9238956334888 C 371.0837265686624 118.97326003198117 370.6018429528653 119.02193655915197 370.03295134585255 119.08784062720255 Z" data-z-index="314160.2653589793" transform="translate(0,0)" class="highcharts-point highcharts-color-0" visibility="visible"></path></g><g data-z-index="31416026.53589793" stroke="#434348" stroke-width="1" stroke-linejoin="round"><path fill="#434348" d="M 371.65635667647575 118.9238613823546 C 372.1727491233443 118.8793178491135 372.60967846253396 118.84741550277295 373.12804728935856 118.81640605851342 L 373.12804728935856 118.81640605851342 C 372.60967846253396 118.84741550277295 372.1727491233443 118.8793178491135 371.65635667647575 118.9238613823546 Z" data-z-index="314160.2653589793" transform="translate(0,0)" class="highcharts-point highcharts-color-1" visibility="visible"></path></g><g data-z-index="31416026.53589793" stroke="#90ed7d" stroke-width="1" stroke-linejoin="round"><path fill="#90ed7d" d="M 373.12844586573505 118.81638221661632 C 373.5627325251792 118.79040576119178 373.92983932676424 118.7724936580576 374.36505573710843 118.75604477950772 L 374.36505573710843 118.75604477950772 C 373.92983932676424 118.7724936580576 373.5627325251792 118.79040576119178 373.12844586573505 118.81638221661632 Z" data-z-index="314160.2653589793" transform="translate(0,0)" class="highcharts-point highcharts-color-2" visibility="visible"></path></g><g data-z-index="31416026.53589793" stroke="#f7a35c" stroke-width="1" stroke-linejoin="round"><path fill="#f7a35c" d="M 374.3654551670605 118.75602968458426 C 374.7725842564108 118.7406452452808 375.1165489495331 118.73118068747561 375.5241376148166 118.7241472930949 L 375.5241376148166 118.7241472930949 C 375.1165489495331 118.73118068747561 374.7725842564108 118.7406452452808 374.3654551670605 118.75602968458426 Z" data-z-index="314160.2653589793" transform="translate(0,0)" class="highcharts-point highcharts-color-3" visibility="visible"></path></g><g data-z-index="31416026.53589793" stroke="#8085e9" stroke-width="1" stroke-linejoin="round"><path fill="#8085e9" d="M 375.5245374958092 118.7241403941196 C 375.86182809483927 118.71832245724772 376.1466498739957 118.71582618907327 376.4840407850358 118.71573100375883 L 376.4840407850358 118.71573100375883 C 376.1466498739957 118.71582618907327 375.86182809483927 118.71832245724772 375.5245374958092 118.7241403941196 Z" data-z-index="314160.2653589793" transform="translate(0,0)" class="highcharts-point highcharts-color-4" visibility="visible"></path></g></g><g data-z-index="0.1" class="highcharts-markers highcharts-series-0 highcharts-pie-series " transform="translate(10,86) scale(1 1)"></g></g><text x="300" text-anchor="middle" class="highcharts-title" data-z-index="4" style="color:#333333;font-size:18px;fill:#333333;" y="24"><tspan>Top 25 Miners by Blocks</tspan></text><text x="300" text-anchor="middle" class="highcharts-subtitle" data-z-index="4" style="color:#666666;fill:#666666;" y="52"><tspan>In the last 7 days</tspan><tspan x="300" dy="15">Source: Etherscan.io</tspan></text><g data-z-index="6" class="highcharts-data-labels highcharts-series-0 highcharts-pie-series " visibility="visible" transform="translate(10,86) scale(1 1)"><path fill="none" class="highcharts-data-label-connector highcharts-color-0" stroke="#7cb5ec" stroke-width="1" d="M 437.1972831594805 104.5993791477925 C 432.1972831594805 104.5993791477925 412.176452077558 117.69475369479548 408.0599383763013 122.05987854379647 L 403.94342467504464 126.42500339279746"></path><path fill="none" class="highcharts-data-label-connector highcharts-color-1" stroke="#434348" stroke-width="1" d="M 444.0314351795574 178.461398798922 C 439.0314351795574 178.461398798922 420.2744036162985 168.74562069684794 415.223510891341 165.50702799615664 L 410.1726181663835 162.26843529546534"></path><path fill="none" class="highcharts-data-label-connector highcharts-color-2" stroke="#90ed7d" stroke-width="1" d="M 420.46000690865753 205.15597872684594 C 415.46000690865753 205.15597872684594 379.94772301805784 187.19558633690448 379.54990882366656 181.20878887359066 L 379.15209462927527 175.22199141027684"></path><path fill="none" class="highcharts-data-label-connector highcharts-color-3" stroke="#f7a35c" stroke-width="1" d="M 325.7145423819926 216.28698547104773 C 330.7145423819926 216.28698547104773 354.76709609051403 183.5973600662197 357.2747388493009 178.1465135453292 L 359.78238160808775 172.69566702443873"></path><path fill="none" class="highcharts-data-label-connector highcharts-color-4" stroke="#8085e9" stroke-width="1" d="M 318.12314221551526 192.28698547104773 C 323.12314221551526 192.28698547104773 339.93367170094973 175.64034850970003 344.15286342776324 171.3743877536231 L 348.37205515457674 167.10842699754616"></path><path fill="none" class="highcharts-data-label-connector highcharts-color-5" stroke="#f15c80" stroke-width="1" d="M 304.81518726459973 168.28698547104773 C 309.81518726459973 168.28698547104773 330.81981499158337 166.24359490720224 336.0906055694776 163.37675576208414 L 341.3613961473718 160.50991661696605"></path><path fill="none" class="highcharts-data-label-connector highcharts-color-6" stroke="#e4d354" stroke-width="1" d="M 301.55259438574086 144.28698547104773 C 306.55259438574086 144.28698547104773 325.94091713033316 156.41607134385336 331.77465746144856 155.01340468740307 L 337.60839779256395 153.61073803095277"></path><path fill="none" class="highcharts-data-label-connector highcharts-color-7" stroke="#2b908f" stroke-width="1" d="M 301.50399010890544 146.25260497339318 C 306.50399010890544 146.25260497339318 324.5042848681233 146.4836760641178 330.5037904602629 146.560699761026 L 336.5032960524025 146.63772345793421" visibility="hidden"></path><path fill="none" class="highcharts-data-label-connector highcharts-color-8" stroke="#f45b5b" stroke-width="1" d="M 302.8481046996485 133.3282308507794 C 307.8481046996485 133.3282308507794 325.9511126753799 137.55088201498222 331.7836765974514 138.9584324030498 L 337.61624051952293 140.3659827911174" visibility="hidden"></path><path fill="none" class="highcharts-data-label-connector highcharts-color-9" stroke="#91e8e1" stroke-width="1" d="M 305.6834506245018 123.16343505656468 C 310.6834506245018 123.16343505656468 329.04782126879377 130.52513321279758 334.52307266085603 132.97903259820856 L 339.9983240529183 135.43293198361954" visibility="hidden"></path><path fill="none" class="highcharts-data-label-connector highcharts-color-0" stroke="#7cb5ec" stroke-width="1" d="M 309.20633182898655 115.07040705239626 C 314.20633182898655 115.07040705239626 332.99786436703744 124.93162598285781 338.0173415554562 128.21869895967833 L 343.03681874387496 131.50577193649886" visibility="hidden"></path><path fill="none" class="highcharts-data-label-connector highcharts-color-1" stroke="#434348" stroke-width="1" d="M 313.14431560841945 108.33976074582262 C 318.14431560841945 108.33976074582262 337.58688079806996 120.27965592342781 342.07685609060036 124.25962098262954 L 346.56683138313076 128.23958604183127" visibility="hidden"></path><path fill="none" class="highcharts-data-label-connector highcharts-color-2" stroke="#90ed7d" stroke-width="1" d="M 317.06997146486833 102.98441192412909 C 322.06997146486833 102.98441192412909 342.41335489891077 116.577731217704 346.3464293336518 121.10883764889564 L 350.2795037683929 125.63994408008729" visibility="hidden"></path><path fill="none" class="highcharts-data-label-connector highcharts-color-3" stroke="#f7a35c" stroke-width="1" d="M 320.4088363243717 99.14926338842675 C 325.4088363243717 99.14926338842675 346.80923162379844 113.92666097679626 350.23508951336015 118.85246017291944 L 353.66094740292186 123.77825936904262" visibility="hidden"></path><path fill="none" class="highcharts-data-label-connector highcharts-color-4" stroke="#8085e9" stroke-width="1" d="M 323.02117910826394 96.5044167778312 C 328.02117910826394 96.5044167778312 350.52723510528017 112.09831323694408 353.5240925931325 117.29627872331504 L 356.5209500809848 122.494244209686" visibility="hidden"></path><path fill="none" class="highcharts-data-label-connector highcharts-color-5" stroke="#f15c80" stroke-width="1" d="M 325.2108838763695 94.48983214183134 C 330.2108838763695 94.48983214183134 353.9301075218551 110.7059482140217 356.534325884718 116.11132023808516 L 359.13854424758085 121.51669226214861" visibility="hidden"></path><path fill="none" class="highcharts-data-label-connector highcharts-color-6" stroke="#e4d354" stroke-width="1" d="M 327.19157208053645 92.80808902330807 C 332.19157208053645 92.80808902330807 357.3553643965556 109.54376987338281 359.56436081233767 115.12233015674107 L 361.7733572281197 120.70089044009933" visibility="hidden"></path><path fill="none" class="highcharts-data-label-connector highcharts-color-7" stroke="#2b908f" stroke-width="1" d="M 328.9187826532246 91.44066298751693 C 333.9187826532246 91.44066298751693 360.7827753828812 108.59875477313156 362.59630130024107 114.31811870166977 L 364.40982721760093 120.03748263020799" visibility="hidden"></path><path fill="none" class="highcharts-data-label-connector highcharts-color-8" stroke="#f45b5b" stroke-width="1" d="M 330.2919466966208 90.41469852562538 C 335.2919466966208 90.41469852562538 364.0333671637156 107.88975379569345 365.4718247986715 113.71477221904948 L 366.9102824336274 119.5397906424055" visibility="hidden"></path><path fill="none" class="highcharts-data-label-connector highcharts-color-9" stroke="#91e8e1" stroke-width="1" d="M 331.25276464351816 89.72731850035342 C 336.25276464351816 89.72731850035342 366.85126971985767 107.41473681816369 367.9645847521818 113.31054292410045 L 369.0778997845059 119.2063490300372" visibility="hidden"></path><path fill="none" class="highcharts-data-label-connector highcharts-color-0" stroke="#7cb5ec" stroke-width="1" d="M 331.87040208152655 89.2982238677168 C 336.87040208152655 89.2982238677168 369.1632944508732 107.11816453358564 370.00983739884936 113.05814475554193 L 370.8563803468255 118.99812497749822" visibility="hidden"></path><path fill="none" class="highcharts-data-label-connector highcharts-color-1" stroke="#434348" stroke-width="1" d="M 332.2732435295935 89.02361190267693 C 337.2732435295935 89.02361190267693 371.161709028749 106.92851002140472 371.77766567927796 112.89680939431399 L 372.39362232980693 118.86510876722326" visibility="hidden"></path><path fill="none" class="highcharts-data-label-connector highcharts-color-2" stroke="#90ed7d" stroke-width="1" d="M 332.5228166970057 88.8555318042655 C 337.5228166970057 88.8555318042655 372.90386947773135 106.81243680153008 373.3188076149162 112.79807180061829 L 373.733745752101 118.7837067997065" visibility="hidden"></path><path fill="none" class="highcharts-data-label-connector highcharts-color-3" stroke="#f7a35c" stroke-width="1" d="M 332.664693118017 88.76067531828514 C 337.664693118017 88.76067531828514 374.4615710298948 106.74683984795142 374.69677437259924 112.74222802450686 L 374.9319777153037 118.7376162010623" visibility="hidden"></path><path fill="none" class="highcharts-data-label-connector highcharts-color-4" stroke="#8085e9" stroke-width="1" d="M 332.7256001710144 88.72010708741857 C 337.7256001710144 88.72010708741857 375.8614832235432 106.71875003439031 375.9351582362113 112.71829768338088 L 376.0088332488794 118.71784533237145" visibility="hidden"></path><g class="highcharts-label highcharts-data-label highcharts-data-label-color-0 " data-z-index="1" transform="translate(442,95)"><text x="5" data-z-index="1" style="font-size:11px;font-weight:bold;color:#000000;fill:#000000;" y="16"><tspan>Spark Pool (23.5168%)</tspan></text></g><g class="highcharts-label highcharts-data-label highcharts-data-label-color-1 " data-z-index="1" transform="translate(449,168)"><text x="5" data-z-index="1" style="font-size:11px;font-weight:bold;color:#000000;fill:#000000;" y="16"><tspan>Ethermine (19.5564%)</tspan><title>Ethermine (19.5564%)</title></text></g><g class="highcharts-label highcharts-data-label highcharts-data-label-color-2 " data-z-index="1" transform="translate(425,195)"><text x="5" data-z-index="1" style="font-size:11px;font-weight:bold;color:#000000;fill:#000000;" y="16"><tspan>F2Pool (9.5026%)</tspan></text></g><g class="highcharts-label highcharts-data-label highcharts-data-label-color-3 " data-z-index="1" transform="translate(192,206)"><text x="5" data-z-index="1" style="font-size:11px;font-weight:bold;color:#000000;fill:#000000;" y="16"><tspan>zhizhu.top (5.9720%)</tspan></text></g><g class="highcharts-label highcharts-data-label highcharts-data-label-color-4 " data-z-index="1" transform="translate(179,182)"><text x="5" data-z-index="1" style="font-size:11px;font-weight:bold;color:#000000;fill:#000000;" y="16"><tspan>Hiveon Pool (4.8739%)</tspan></text></g><g class="highcharts-label highcharts-data-label highcharts-data-label-color-5 " data-z-index="1" transform="translate(187,158)"><text x="5" data-z-index="1" style="font-size:11px;font-weight:bold;color:#000000;fill:#000000;" y="16"><tspan>BeePool (4.2316%)</tspan></text></g><g class="highcharts-label highcharts-data-label highcharts-data-label-color-6 " data-z-index="1" transform="translate(174,134)"><text x="5" data-z-index="1" style="font-size:11px;font-weight:bold;color:#000000;fill:#000000;" y="16"><tspan>Nanopool (3.9234%)</tspan></text></g><g class="highcharts-label highcharts-data-label highcharts-data-label-color-7 " data-z-index="1" transform="translate(170,136)" visibility="hidden"><text x="5" data-z-index="1" style="font-size:11px;font-weight:bold;color:#000000;fill:#000000;" y="16"><tspan>Babel Pool (3.8149%)</tspan></text></g><g class="highcharts-label highcharts-data-label highcharts-data-label-color-8 " data-z-index="1" transform="translate(1,123)" visibility="hidden"><text x="5" data-z-index="1" style="font-size:11px;font-weight:bold;color:#000000;fill:#000000;" y="16"><tspan>0xbcc817f057950b0df41206c5d7125e6225cae18e</tspan><tspan dy="14" x="5">(3.1509%)</tspan></text></g><g class="highcharts-label highcharts-data-label highcharts-data-label-color-9 " data-z-index="1" transform="translate(147,113)" visibility="hidden"><text x="5" data-z-index="1" style="font-size:11px;font-weight:bold;color:#000000;fill:#000000;" y="16"><tspan>MiningPoolHub (2.5889%)</tspan></text></g><g class="highcharts-label highcharts-data-label highcharts-data-label-color-0 " data-z-index="1" transform="translate(150,105)" visibility="hidden"><text x="5" data-z-index="1" style="font-size:11px;font-weight:bold;color:#000000;fill:#000000;" y="16"><tspan>2Miners: PPLNS (2.3393%)</tspan></text></g><g class="highcharts-label highcharts-data-label highcharts-data-label-color-1 " data-z-index="1" transform="translate(6,98)" visibility="hidden"><text x="5" data-z-index="1" style="font-size:11px;font-weight:bold;color:#000000;fill:#000000;" y="16"><tspan>0xc8f595e2084db484f8a80109101d58625223b7c9</tspan><tspan dy="14" x="5">(2.1852%)</tspan></text></g><g class="highcharts-label highcharts-data-label highcharts-data-label-color-2 " data-z-index="1" transform="translate(203,93)" visibility="hidden"><text x="5" data-z-index="1" style="font-size:11px;font-weight:bold;color:#000000;fill:#000000;" y="16"><tspan>UUPool (1.8793%)</tspan></text></g><g class="highcharts-label highcharts-data-label highcharts-data-label-color-3 " data-z-index="1" transform="translate(185,89)" visibility="hidden"><text x="5" data-z-index="1" style="font-size:11px;font-weight:bold;color:#000000;fill:#000000;" y="16"><tspan>Flexpool.io (1.4539%)</tspan></text></g><g class="highcharts-label highcharts-data-label highcharts-data-label-color-4 " data-z-index="1" transform="translate(22,87)" visibility="hidden"><text x="5" data-z-index="1" style="font-size:11px;font-weight:bold;color:#000000;fill:#000000;" y="16"><tspan>0x6ebaf477f83e055589c1188bcc6ddccd8c9b131a</tspan><tspan dy="14" x="5">(1.1805%)</tspan></text></g><g class="highcharts-label highcharts-data-label highcharts-data-label-color-5 " data-z-index="1" transform="translate(31,84)" visibility="hidden"><text x="5" data-z-index="1" style="font-size:11px;font-weight:bold;color:#000000;fill:#000000;" y="16"><tspan>0xc365c3315cf926351ccaf13fa7d19c8c4058c8e1</tspan><tspan dy="14" x="5">(1.1219%)</tspan></text></g><g class="highcharts-label highcharts-data-label highcharts-data-label-color-6 " data-z-index="1" transform="translate(28,83)" visibility="hidden"><text x="5" data-z-index="1" style="font-size:11px;font-weight:bold;color:#000000;fill:#000000;" y="16"><tspan>0x2f731c3e8cd264371ffdb635d07c14a6303df52a</tspan><tspan dy="14" x="5">(1.1154%)</tspan></text></g><g class="highcharts-label highcharts-data-label highcharts-data-label-color-7 " data-z-index="1" transform="translate(28,81)" visibility="hidden"><text x="5" data-z-index="1" style="font-size:11px;font-weight:bold;color:#000000;fill:#000000;" y="16"><tspan>0x45a36a8e118c37e4c47ef4ab827a7c9e579e11e2</tspan><tspan dy="14" x="5">(1.0612%)</tspan></text></g><g class="highcharts-label highcharts-data-label highcharts-data-label-color-8 " data-z-index="1" transform="translate(202,80)" visibility="hidden"><text x="5" data-z-index="1" style="font-size:11px;font-weight:bold;color:#000000;fill:#000000;" y="16"><tspan>EzilPool 2 (0.9592%)</tspan></text></g><g class="highcharts-label highcharts-data-label highcharts-data-label-color-9 " data-z-index="1" transform="translate(35,80)" visibility="hidden"><text x="5" data-z-index="1" style="font-size:11px;font-weight:bold;color:#000000;fill:#000000;" y="16"><tspan>0xf541c3cd1d2df407fb9bb52b3489fc2aaeedd97e</tspan><tspan dy="14" x="5">(0.7660%)</tspan></text></g><g class="highcharts-label highcharts-data-label highcharts-data-label-color-0 " data-z-index="1" transform="translate(219,79)" visibility="hidden"><text x="5" data-z-index="1" style="font-size:11px;font-weight:bold;color:#000000;fill:#000000;" y="16"><tspan>xnpool (0.6358%)</tspan></text></g><g class="highcharts-label highcharts-data-label highcharts-data-label-color-1 " data-z-index="1" transform="translate(174,79)" visibility="hidden"><text x="5" data-z-index="1" style="font-size:11px;font-weight:bold;color:#000000;fill:#000000;" y="16"><tspan>Mining Express (0.5686%)</tspan></text></g><g class="highcharts-label highcharts-data-label highcharts-data-label-color-2 " data-z-index="1" transform="translate(38,79)" visibility="hidden"><text x="5" data-z-index="1" style="font-size:11px;font-weight:bold;color:#000000;fill:#000000;" y="16"><tspan>0x3f0ee622f9e89df9db62c35cae55d57c56fd56f6</tspan><tspan dy="14" x="5">(0.4774%)</tspan></text></g><g class="highcharts-label highcharts-data-label highcharts-data-label-color-3 " data-z-index="1" transform="translate(177,79)" visibility="hidden"><text x="5" data-z-index="1" style="font-size:11px;font-weight:bold;color:#000000;fill:#000000;" y="16"><tspan>2Miners: SOLO (0.4557%)</tspan></text></g><g class="highcharts-label highcharts-data-label highcharts-data-label-color-4 " data-z-index="1" transform="translate(33,79)" visibility="hidden"><text x="5" data-z-index="1" style="font-size:11px;font-weight:bold;color:#000000;fill:#000000;" y="16"><tspan>0x2a0eee948fbe9bd4b661adedba57425f753ea0f6</tspan><tspan dy="14" x="5">(0.3819%)</tspan></text></g></g><g class="highcharts-legend" data-z-index="7"><rect fill="none" class="highcharts-legend-box" rx="0" ry="0" x="0" y="0" width="8" height="8" visibility="hidden"></rect><g data-z-index="1"><g></g></g></g><g stroke-linejoin="round" class="highcharts-3d-frame highcharts-3d-frame-top" data-z-index="1000"><path fill="none" d="M 17.44771823957268 97.84081026892679 L 581.5813117200134 97.84081026892679 L 589.9293729796868 165.1600101480673 L 9.070870561762604 165.1600101480673 Z" visibility="hidden"></path><path fill="none" d="M 10.070627020313225 165.1600101480673 L 589.9293729796868 165.1600101480673 L 581.6616087889818 98.4883300064379 L 18.338391211018177 98.4883300064379 Z" visibility="hidden"></path><path fill="none" d="M 17.44771823957268 97.84081026892679 L 9.070870561762604 165.1600101480673 L 10.070627020313225 165.1600101480673 L 18.338391211018177 98.4883300064379 Z" visibility="hidden"></path><path fill="none" d="M 589.9293729796868 165.1600101480673 L 581.5813117200134 97.84081026892679 L 581.6616087889818 98.4883300064379 L 589.9293729796868 165.1600101480673 Z" visibility="hidden"></path><path fill="none" d="M 9.070870561762604 165.1600101480673 L 589.9293729796868 165.1600101480673 L 589.9293729796868 165.1600101480673 L 10.070627020313225 165.1600101480673 Z" visibility="hidden"></path><path fill="none" d="M 581.5813117200134 97.84081026892679 L 17.44771823957268 97.84081026892679 L 18.338391211018177 98.4883300064379 L 581.6616087889818 98.4883300064379 Z" visibility="hidden"></path></g><g stroke-linejoin="round" class="highcharts-3d-frame highcharts-3d-frame-front" data-z-index="1000"><path fill="none" d="M 32.616797952334935 365.7688292313642 L 566.4643594289446 365.7688292313642 L 566.5362651832095 365.15408727022435 L 33.46373481679058 365.15408727022435 Z" visibility="hidden"></path><path fill="none" d="M 589.9293729796868 165.1600101480673 L 9.070870561762604 165.1600101480673 L 10.070627020313225 165.1600101480673 L 589.9293729796868 165.1600101480673 Z" visibility="hidden"></path><path fill="none" d="M 9.070870561762604 165.1600101480673 L 32.616797952334935 365.7688292313642 L 33.46373481679058 365.15408727022435 L 10.070627020313225 165.1600101480673 Z" visibility="hidden"></path><path fill="none" d="M 566.4643594289446 365.7688292313642 L 589.9293729796868 165.1600101480673 L 589.9293729796868 165.1600101480673 L 566.5362651832095 365.15408727022435 Z" visibility="hidden"></path><path fill="none" d="M 589.9293729796868 165.1600101480673 L 10.070627020313225 165.1600101480673 L 33.46373481679058 365.15408727022435 L 566.5362651832095 365.15408727022435 Z" visibility="hidden"></path><path fill="none" d="M 566.4643594289446 365.7688292313642 L 32.616797952334935 365.7688292313642 L 9.070870561762604 165.1600101480673 L 589.9293729796868 165.1600101480673 Z" visibility="hidden"></path></g></svg>